PathFileType	4	(X/Y/Z)	TRC_missing_Z7.trc
DataRate	CameraRate	NumFrames	NumMarkers	Units	OrigDataRate	OrigDataStartFrame	OrigNumFrames
100.0	100.0	7	37	mm	100.0	653	2609	
Frame#	Time	T10			C7			CLAV			RACR1			LACR1			RPSI			LPSI			RASI			LASI			LTH2			LTH3			LTH1			RTH2			RTH3			RTH1			RLFC			RMFC			RTB1			RTB3			RTB2			LLFC			LMFC			LTB1			LTB3			LTB2			LLMAL			LCAL			LMMAL			RLMAL			RMMAL			RCAL			RMT5			RMT1			RToe			LMT5			LMT1			LToe			
		X1	Y1	Z1	X2	Y2	Z2	X3	Y3	Z3	X4	Y4	Z4	X5	Y5	Z5	X6	Y6	Z6	X7	Y7	X8	Y8	Z8	X9	Y9	Z9	X10	Y10	Z10	X11	Y11	Z11	X12	Y12	Z12	X13	Y13	Z13	X14	Y14	Z14	X15	Y15	Z15	X16	Y16	Z16	X17	Y17	Z17	X18	Y18	Z18	X19	Y19	Z19	X20	Y20	Z20	X21	Y21	Z21	X22	Y22	Z22	X23	Y23	Z23	X24	Y24	Z24	X25	Y25	Z25	X26	Y26	Z26	X27	Y27	Z27	X28	Y28	Z28	X29	Y29	Z29	X30	Y30	Z30	X31	Y31	Z31	X32	Y32	Z32	X33	Y33	Z33	X34	Y34	Z34	X35	Y35	Z35	X36	Y36	Z36	X37	Y37	Z37	
653	6.52	669.71588	1224.1188	-555.57581	674.62366	1477.7262	-431.82068	702.06909	1321.7402	-336.58783	525.09497	1426.8141	-385.30539	855.55487	1425.2056	-448.48007	624.5614	1016.5316	-627.94904	712.32043	1011.9144	-630.59119	550.60602	966.55792	-394.76065	804.32446	968.75427	-401.63629	864.091	742.74982	-367.81735	884.1767	780.58191	-417.79333	834.68256	865.18439	-394.25742	562.45862	681.95032	-437.57404	514.26685	753.31488	-450.75348	573.46851	796.23932	-395.7374	560.89838	486.72675	-565.51501				614.14703	372.95575	-560.72522	593.37787	301.58838	-603.22046	623.33508	252.34979	-612.39111	845.1626	522.05621	-327.85971				807.99036	409.18964	-292.97787	830.51697	349.72861	-331.92328	794.14343	296.44965	-329.49304	806.30566	113.92974	-427.69971	749.17975	75.048698	-476.87894				619.34729	82.300949	-716.63562				659.80499	50.830132	-786.98108	620.17853	43.403862	-612.98914	700.16962	50.032482	-587.38983				841.98352	58.797684	-324.06342	781.82458	68.683418	-283.40997			
654	6.53	669.96631	1223.2622	-555.85846	674.71265	1476.843	-432.01511	702.47357	1320.7986	-336.96112	525.33411	1425.8727	-385.17642	855.58063	1424.3652	-449.43134	625.98523	1015.9154	-628.54053	713.74072	1011.1506	-630.79858	550.802	965.4884	-395.62009	804.60052	968.01208	-401.47601	862.91376	741.28137	-365.80704	884.14423	779.69775	-416.73163	834.78674	864.63379	-393.54086	562.62915	680.95044	-441.36627	514.79938	752.47668	-453.80624	573.56342	794.73059	-397.91928	561.09723	486.8775	-571.57684				614.13129	372.96146	-567.51495	593.41309	301.91464	-610.53113	623.34088	252.64078	-619.88184	843.3233	521.84991	-325.43909				805.99896	409.69421	-287.46817	829.09589	348.85675	-324.68097	792.80261	295.52789	-320.28979	806.1098	109.37785	-412.59589	749.52698	68.684669	-460.88736				619.61432	83.152771	-724.98596				660.2608	52.215069	-795.43927	620.11548	43.50713	-621.52509	700.00116	50.047905	-595.70721				841.17255	57.949245	-306.63474	780.7605	69.066132	-266.6893			
655	6.54	670.27216	1222.3936	-556.05219	674.84363	1475.9611	-432.13995	702.91925	1319.8577	-337.24948	525.60822	1424.9099	-384.96783	855.64807	1423.5273	-450.2778	627.43481	1015.2817	-629.00531	715.18805	1010.3809	-630.88916	551.0658	964.41052	-396.35886	804.94098	967.25873	-401.21829	861.76978	739.44244	-363.80835	884.13489	778.65033	-415.81857	834.94385	863.98578	-392.77228	562.8421	679.9649	-445.02884	515.37805	751.64197	-456.73395	573.70764	793.22369	-399.98679	561.34344	487.05951	-577.47607				614.14752	372.99353	-574.18298	593.46753	302.29718	-617.74536	623.36133	252.98282	-627.29767	841.50385	521.4566	-323.32678				803.94403	410.01044	-282.47717	827.6095	347.9151	-318.03555	791.35773	294.57642	-311.83029	805.78705	105.15964	-398.55084	749.77802	62.846512	-446.05472				619.87109	84.09037	-733.32483				660.70111	53.708149	-803.90576	620.04529	43.608559	-630.04688	699.82947	50.060745	-604.01331				840.07806	57.183758	-290.44745	779.3811	69.445595	-251.26173			
656	6.55	670.63287	1221.5204	-556.1535	675.01794	1475.0885	-432.19318	703.40637	1318.9269	-337.44934	525.91846	1423.936	-384.68045	855.75995	1422.6996	-451.01505	628.90649	1014.6354	-629.33746	716.65906	1009.6132	-630.85846	551.39618	963.33099	-396.97052	805.34357	966.50409	-400.85864	860.69806	737.36279	-361.9046	884.14557	777.47253	-415.02591	835.15112	863.25482	-391.94339	563.09918	678.99353	-448.54016	516.0022	750.81085	-459.51889	573.9035	791.7243	-401.92575	561.63434	487.26846	-583.18744				614.19128	373.0481	-580.70941	593.53558	302.73627	-624.84485	623.39001	253.37675	-634.62445	839.71735	520.88916	-321.50183				801.83582	410.13547	-278.02094	826.06482	346.90784	-312.01361	789.81323	293.59396	-304.17776	805.33777	101.2884	-385.70395	749.93188	57.553448	-432.54745				620.10687	85.121979	-741.64862				661.1134	55.321777	-812.37848	619.96478	43.70512	-638.5553	699.65057	50.069714	-612.31244				838.71466	56.479042	-275.65018	777.70154	69.781532	-237.26445			
657	6.56	671.04749	1220.6506	-556.1593	675.23706	1474.2329	-432.17325	703.93518	1318.0161	-337.55783	526.26575	1422.9608	-384.31598	855.91858	1421.8893	-451.63928	630.39648	1013.9818	-629.53192	718.15027	1008.8561	-630.70282	551.79193	962.25629	-397.44965	805.80591	965.75787	-400.39349	859.72906	735.17151	-360.16129	884.17273	776.20276	-414.31613	835.4057	862.4566	-391.04633	563.40271	678.03632	-451.87762	516.67108	749.98346	-462.14258	574.15381	790.23914	-403.72217	561.96649	487.49915	-588.68323				614.25671	373.12048	-587.07159	593.6109	303.23166	-631.80963	623.41943	253.82295	-641.84564	837.97601	520.16309	-319.94385				799.68579	410.06924	-274.11243	824.47064	345.83936	-306.63806	788.17621	292.57916	-297.38681	804.76715	97.771805	-374.1817	749.99109	52.816002	-420.51526				620.31006	86.256416	-749.95215				661.4848	57.070889	-820.85242	619.87091	43.793457	-647.05261	699.46112	50.073338	-620.61078				837.10559	55.813046	-262.37851	775.74615	70.035225	-224.82071			
658	6.57	671.51514	1219.7919	-556.06781	675.50189	1473.4023	-432.07916	704.50482	1317.135	-337.5726	526.65057	1421.9949	-383.8768	856.12579	1421.1047	-452.14709	631.90106	1013.3262	-629.58466	719.65808	1008.118	-630.41956	552.25171	961.19348	-397.79208	806.32581	965.0304	-399.82022	858.88184	732.98444	-358.61758	884.2121	774.88068	-413.64423	835.70459	861.60773	-390.07407	563.75513	677.09351	-455.01761	517.38434	749.16016	-464.58588	574.46179	788.77527	-405.36218	562.33545	487.74518	-593.93396				614.33728	373.20535	-593.24512	593.68622	303.78244	-638.61713	623.44086	254.32155	-648.94244	836.29181	519.29535	-318.63382				797.50629	409.81427	-270.76089	822.8371	344.71454	-301.92755	786.45667	291.53052	-291.50189	804.08423	94.61203	-364.09326	749.9624	48.635952	-410.08582				620.46869	87.502975	-758.22803				661.80249	58.972984	-829.31946	619.76105	43.869934	-655.54309	699.25745	50.070023	-628.91632				835.2821	55.165104	-250.7495	773.54724	70.171532	-214.03456			
659	6.58	672.03448	1218.9521	-555.87805	675.81305	1472.6049	-431.91071	705.11432	1316.2927	-337.49228	527.0733	1421.0492	-383.366	856.38324	1420.3536	-452.53555	633.4165	1012.674	-629.49347	721.17902	1007.4079	-630.00739	552.77405	960.14923	-397.9949	806.9007	964.33197	-399.13718	858.16162	730.8952	-357.28168	884.25983	773.54401	-412.96051	836.04541	860.72491	-389.02094	564.15887	676.16504	-457.93594	518.14166	748.34149	-466.82922	574.8313	787.33997	-406.83261	562.73572	487.9993	-598.9082				614.4248	373.29657	-599.20288	593.75372	304.38702	-645.24219	623.44482	254.87234	-655.89319	834.67566	518.30426	-317.55484				795.31104	409.37552	-267.97192	821.17596	343.53864	-297.8959	784.66711	290.44681	-286.55582	803.30225	91.805939	-355.52667	749.85602	45.006435	-401.36005				620.57019	88.871407	-766.46625				662.05414	61.048111	-837.76764	619.63367	43.93079	-664.03247	699.03662	50.05817	-637.23914				833.28259	54.517014	-240.85657	771.14435	70.160721	-204.98633			
